# xmcd CD database generated by RipIT
#
# Track frame offsets:
# 150
# 13644
# 28493
# 42101
# 57015
# 70327
# 83906
# 102283
# 118174
# 135828
# 150798
# 169313
# 180196
# 195858
#
# Disc length: 2810 seconds
#
# Revision: 0
# Processed by: cddbd v1.5.2PL0 Copyright (c) Steve Scherf et al.
# Submitted via: RipIT 3.9.0 www.suwald.com/ripit/ripit.html on 2019-09-20 at 16:47
#
DISCID=a50af80e
DTITLE=ZAZ - PARIS
DYEAR=2015
DGENRE=
TTITLE0=Paris sera toujours Paris
TTITLE1=Sous le ciel de Paris
TTITLE2=La parisienne
TTITLE3=Dans mon Paris (Version Swing Manouche)
TTITLE4=Champs Elysées
TTITLE5=A Paris
TTITLE6=I love Paris - J'aime Paris (en duo avec Nikki Yanofsky)
TTITLE7=La romance de Paris (en duo avec Thomas Dutronc)
TTITLE8=Paris canaille
TTITLE9=La complainte de la butte
TTITLE10=J'aime Paris au mois de Mai (en duo avec Charles Aznavour)
TTITLE11=Paris, l'après-midi
TTITLE12=J'ai deux amours
TTITLE13=Sous le ciel de Paris (en duo avec Pablo Alborán)
EXTD=
EXTT0=
EXTT1=
EXTT2=
EXTT3=
EXTT4=
EXTT5=
EXTT6=
EXTT7=
EXTT8=
EXTT9=
EXTT10=
EXTT11=
EXTT12=
EXTT13=
PLAYORDER=
